<svg width="24" height="25" viewBox="0 0 24 25" fill="none" xmlns="http://www.w3.org/2000/svg">
<path d="M16 21.7539V19.7539C16 18.693 15.5786 17.6756 14.8284 16.9255C14.0783 16.1753 13.0609 15.7539 12 15.7539H5C3.93913 15.7539 2.92172 16.1753 2.17157 16.9255C1.42143 17.6756 1 18.693 1 19.7539V21.7539" stroke="#363636" stroke-width="2" stroke-linecap="round" stroke-linejoin="round"/>
<path d="M8.5 11.7539C10.7091 11.7539 12.5 9.96305 12.5 7.75391C12.5 5.54477 10.7091 3.75391 8.5 3.75391C6.29086 3.75391 4.5 5.54477 4.5 7.75391C4.5 9.96305 6.29086 11.7539 8.5 11.7539Z" stroke="#363636" stroke-width="2" stroke-linecap="round" stroke-linejoin="round"/>
<path d="M20 8.75391V14.7539" stroke="#363636" stroke-width="2" stroke-linecap="round" stroke-linejoin="round"/>
<path d="M23 11.7539H17" stroke="#363636" stroke-width="2" stroke-linecap="round" stroke-linejoin="round"/>
</svg>
