<svg width="24" height="25" viewBox="0 0 24 25" fill="none" xmlns="http://www.w3.org/2000/svg">
<path fill-rule="evenodd" clip-rule="evenodd" d="M3 5.25391C3 4.42548 3.67157 3.75391 4.5 3.75391H19.5C20.3284 3.75391 21 4.42548 21 5.25391V20.2539C21 21.0823 20.3284 21.7539 19.5 21.7539H4.5C3.67157 21.7539 3 21.0823 3 20.2539V5.25391ZM19.5 5.25391H4.5V20.2539H19.5V5.25391Z" fill="#363636"/>
<path fill-rule="evenodd" clip-rule="evenodd" d="M16.5 2.25391C16.9142 2.25391 17.25 2.58969 17.25 3.00391V6.00391C17.25 6.41812 16.9142 6.75391 16.5 6.75391C16.0858 6.75391 15.75 6.41812 15.75 6.00391V3.00391C15.75 2.58969 16.0858 2.25391 16.5 2.25391Z" fill="#363636"/>
<path fill-rule="evenodd" clip-rule="evenodd" d="M7.5 2.25391C7.91421 2.25391 8.25 2.58969 8.25 3.00391V6.00391C8.25 6.41812 7.91421 6.75391 7.5 6.75391C7.08579 6.75391 6.75 6.41812 6.75 6.00391V3.00391C6.75 2.58969 7.08579 2.25391 7.5 2.25391Z" fill="#363636"/>
<path fill-rule="evenodd" clip-rule="evenodd" d="M3 9.00391C3 8.58969 3.33579 8.25391 3.75 8.25391H20.25C20.6642 8.25391 21 8.58969 21 9.00391C21 9.41812 20.6642 9.75391 20.25 9.75391H3.75C3.33579 9.75391 3 9.41812 3 9.00391Z" fill="#363636"/>
<path fill-rule="evenodd" clip-rule="evenodd" d="M7.875 12.7534C7.875 12.3392 8.21079 12.0034 8.625 12.0034H11.25C11.5383 12.0034 11.8011 12.1687 11.926 12.4285C12.0509 12.6884 12.0158 12.9968 11.8357 13.2219L11.0046 14.2607C11.2477 14.424 11.4571 14.6335 11.6206 14.8781C11.8262 15.1857 11.9528 15.5392 11.9891 15.9074C12.0255 16.2755 11.9705 16.647 11.829 16.9888C11.6875 17.3307 11.4639 17.6323 11.178 17.8671C10.8922 18.102 10.5528 18.2626 10.19 18.335C9.82715 18.4073 9.45209 18.3891 9.09801 18.2819C8.74392 18.1747 8.42174 17.9818 8.15998 17.7204C7.86691 17.4277 7.86662 16.9528 8.15933 16.6597C8.45205 16.3666 8.92692 16.3664 9.21999 16.6591C9.30725 16.7462 9.41464 16.8105 9.53267 16.8462C9.6507 16.882 9.77571 16.8881 9.89665 16.8639C10.0176 16.8398 10.1307 16.7863 10.226 16.708C10.3213 16.6297 10.3958 16.5292 10.443 16.4152C10.4902 16.3013 10.5085 16.1775 10.4964 16.0547C10.4843 15.932 10.4421 15.8142 10.3735 15.7116C10.305 15.6091 10.2123 15.5251 10.1035 15.467C9.99474 15.4088 9.87332 15.3784 9.75 15.3784C9.4617 15.3784 9.19891 15.2132 9.07402 14.9533C8.94913 14.6935 8.98425 14.385 9.16435 14.1599L9.68953 13.5034H8.625C8.21079 13.5034 7.875 13.1676 7.875 12.7534Z" fill="#363636"/>
<path fill-rule="evenodd" clip-rule="evenodd" d="M15.3354 12.0826C15.5895 12.2096 15.75 12.4693 15.75 12.7534V17.6284C15.75 18.0426 15.4142 18.3784 15 18.3784C14.5858 18.3784 14.25 18.0426 14.25 17.6284V14.2534L13.95 14.4784C13.6186 14.7269 13.1485 14.6598 12.9 14.3284C12.6515 13.9971 12.7186 13.5269 13.05 13.2784L14.55 12.1534C14.7773 11.983 15.0813 11.9556 15.3354 12.0826Z" fill="#363636"/>
</svg>
