<svg width="32" height="32" viewBox="0 0 32 32" fill="none" xmlns="http://www.w3.org/2000/svg">
<path d="M20.0583 5C20.7972 6.12073 21.0292 7.49828 21.0205 8.54076C21.0183 8.8008 20.8 9 20.5399 9H11.4601C11.2 9 10.9817 8.8008 10.9795 8.54076C10.9709 7.49828 11.2028 6.12073 11.9417 5M20.0583 5C19.3128 3.86929 18.0512 3 16 3C13.9488 3 12.6872 3.86929 11.9417 5M20.0583 5H24.0001C25.1046 5 26.0001 5.89543 26.0001 7V26C26.0001 27.1046 25.1046 28 24.0001 28H8.00006C6.89549 28 6.00006 27.1046 6.00006 26V7C6.00006 5.89543 6.89549 5 8.00006 5H11.9417M12.0001 16H20.0001M12.0001 20H20.0001" stroke="#363636" stroke-width="2" stroke-linecap="round"/>
</svg>
