<svg width="24" height="25" viewBox="0 0 24 25" fill="none" xmlns="http://www.w3.org/2000/svg">
<path fill-rule="evenodd" clip-rule="evenodd" d="M2 12.7539C2 12.2016 2.44772 11.7539 3 11.7539H21C21.5523 11.7539 22 12.2016 22 12.7539C22 13.3062 21.5523 13.7539 21 13.7539H3C2.44772 13.7539 2 13.3062 2 12.7539Z" fill="#363636"/>
<path fill-rule="evenodd" clip-rule="evenodd" d="M2 6.75391C2 6.20162 2.44772 5.75391 3 5.75391H21C21.5523 5.75391 22 6.20162 22 6.75391C22 7.30619 21.5523 7.75391 21 7.75391H3C2.44772 7.75391 2 7.30619 2 6.75391Z" fill="#363636"/>
<path fill-rule="evenodd" clip-rule="evenodd" d="M2 18.7539C2 18.2016 2.44772 17.7539 3 17.7539H21C21.5523 17.7539 22 18.2016 22 18.7539C22 19.3062 21.5523 19.7539 21 19.7539H3C2.44772 19.7539 2 19.3062 2 18.7539Z" fill="#363636"/>
</svg>
