<svg width="24" height="25" viewBox="0 0 24 25" fill="none" xmlns="http://www.w3.org/2000/svg">
<path fill-rule="evenodd" clip-rule="evenodd" d="M3.81818 3.75391C3.36631 3.75391 3 4.12022 3 4.57209V11.1175C3 11.5694 3.36631 11.9357 3.81818 11.9357H10.3636C10.8155 11.9357 11.1818 11.5694 11.1818 11.1175V4.57209C11.1818 4.12022 10.8155 3.75391 10.3636 3.75391H3.81818ZM4.63636 10.2994V5.39027H9.54545V10.2994H4.63636ZM13.6364 3.75391C13.1845 3.75391 12.8182 4.12022 12.8182 4.57209V11.1175C12.8182 11.5694 13.1845 11.9357 13.6364 11.9357H20.1818C20.6337 11.9357 21 11.5694 21 11.1175V4.57209C21 4.12022 20.6337 3.75391 20.1818 3.75391H13.6364ZM14.4545 10.2994V5.39027H19.3636V10.2994H14.4545ZM3 14.3903C3 13.9384 3.36631 13.5721 3.81818 13.5721H10.3636C10.8155 13.5721 11.1818 13.9384 11.1818 14.3903V20.9357C11.1818 21.3876 10.8155 21.7539 10.3636 21.7539H3.81818C3.36631 21.7539 3 21.3876 3 20.9357V14.3903ZM4.63636 15.2085V20.1175H9.54545V15.2085H4.63636ZM13.6364 13.5721C13.1845 13.5721 12.8182 13.9384 12.8182 14.3903V20.9357C12.8182 21.3876 13.1845 21.7539 13.6364 21.7539H20.1818C20.6337 21.7539 21 21.3876 21 20.9357V14.3903C21 13.9384 20.6337 13.5721 20.1818 13.5721H13.6364ZM14.4545 20.1175V15.2085H19.3636V20.1175H14.4545Z" fill="#363636"/>
</svg>
