<svg width="189" height="49" viewBox="0 0 189 49" fill="none" xmlns="http://www.w3.org/2000/svg">
<path d="M0 12C0 8.134 3.13401 5 7 5H33C36.866 5 40 8.134 40 12V37.9999C40 41.8659 36.866 44.9999 33 44.9999H7C3.13401 44.9999 0 41.8659 0 37.9999V12Z" fill="#6E76F1"/>
<path fill-rule="evenodd" clip-rule="evenodd" d="M32.5374 18.7089H28.5485C26.6071 16.1336 23.5031 14.4647 20.0088 14.4647C14.1325 14.4647 9.36218 19.183 9.36218 24.994C9.36218 30.8054 14.1325 35.5232 20.0088 35.5232C23.5031 35.5232 26.6071 33.8543 28.5485 31.2795H32.5374C30.2162 35.7923 25.475 38.8869 20.0088 38.8869C12.2556 38.8869 5.96143 32.662 5.96143 24.994C5.96143 17.3265 12.2556 11.1016 20.0088 11.1016C25.475 11.1016 30.2162 14.1961 32.5374 18.7089ZM23.3517 25.6144C23.0569 27.1751 21.6713 28.3576 20.0088 28.3576C18.1314 28.3576 16.6075 26.8505 16.6075 24.994C16.6075 23.1379 18.1314 21.6308 20.0088 21.6308C21.6713 21.6308 23.0569 22.8133 23.3517 24.374H40V25.6144H23.3517Z" fill="white"/>
<path d="M60.9752 34C59.2794 34 57.7435 33.633 56.3676 32.8989C55.0077 32.1489 53.9358 31.1197 53.1519 29.8112C52.384 28.5027 52 27.0266 52 25.383C52 23.7394 52.392 22.2633 53.1759 20.9548C53.9598 19.6463 55.0317 18.625 56.3916 17.891C57.7675 17.141 59.3034 16.766 60.9992 16.766C62.3751 16.766 63.631 17.0053 64.7669 17.484C65.9028 17.9628 66.8627 18.6569 67.6467 19.5665L65.6309 21.4574C64.415 20.1489 62.9191 19.4947 61.1432 19.4947C59.9913 19.4947 58.9594 19.75 58.0475 20.2606C57.1356 20.7553 56.4236 21.4495 55.9117 22.3431C55.3997 23.2367 55.1437 24.25 55.1437 25.383C55.1437 26.516 55.3997 27.5293 55.9117 28.4229C56.4236 29.3165 57.1356 30.0186 58.0475 30.5293C58.9594 31.0239 59.9913 31.2713 61.1432 31.2713C62.9191 31.2713 64.415 30.609 65.6309 29.2846L67.6467 31.1995C66.8627 32.109 65.8948 32.8032 64.7429 33.2819C63.607 33.7606 62.3511 34 60.9752 34Z" fill="#363636"/>
<path d="M70.348 16H73.3477V33.7606H70.348V16Z" fill="#363636"/>
<path d="M89.3319 27.4415C89.3319 27.6489 89.3159 27.9441 89.2839 28.3271H79.2287C79.4047 29.2686 79.8607 30.0186 80.5966 30.5771C81.3485 31.1197 82.2764 31.391 83.3804 31.391C84.7882 31.391 85.9481 30.9282 86.8601 30.0027L88.4679 31.8457C87.892 32.5319 87.164 33.0505 86.2841 33.4016C85.4042 33.7527 84.4123 33.9282 83.3084 33.9282C81.9005 33.9282 80.6606 33.6489 79.5887 33.0904C78.5168 32.5319 77.6848 31.758 77.0929 30.7686C76.5169 29.7633 76.229 28.6303 76.229 27.3697C76.229 26.125 76.5089 25.008 77.0689 24.0186C77.6448 23.0133 78.4368 22.2314 79.4447 21.6729C80.4526 21.1144 81.5885 20.8351 82.8524 20.8351C84.1003 20.8351 85.2122 21.1144 86.1881 21.6729C87.18 22.2154 87.948 22.9894 88.4919 23.9947C89.0519 24.984 89.3319 26.133 89.3319 27.4415ZM82.8524 23.2287C81.8925 23.2287 81.0765 23.516 80.4046 24.0904C79.7487 24.6489 79.3487 25.3989 79.2047 26.3404H86.4761C86.3481 25.4149 85.9561 24.6649 85.3002 24.0904C84.6442 23.516 83.8283 23.2287 82.8524 23.2287Z" fill="#363636"/>
<path d="M103.978 20.9787L98.4824 33.7606H95.3867L89.8911 20.9787H93.0109L96.9945 30.4574L101.098 20.9787H103.978Z" fill="#363636"/>
<path d="M117.548 27.4415C117.548 27.6489 117.532 27.9441 117.5 28.3271H107.445C107.621 29.2686 108.077 30.0186 108.813 30.5771C109.565 31.1197 110.493 31.391 111.597 31.391C113.005 31.391 114.165 30.9282 115.076 30.0027L116.684 31.8457C116.108 32.5319 115.38 33.0505 114.5 33.4016C113.621 33.7527 112.629 33.9282 111.525 33.9282C110.117 33.9282 108.877 33.6489 107.805 33.0904C106.733 32.5319 105.901 31.758 105.309 30.7686C104.733 29.7633 104.445 28.6303 104.445 27.3697C104.445 26.125 104.725 25.008 105.285 24.0186C105.861 23.0133 106.653 22.2314 107.661 21.6729C108.669 21.1144 109.805 20.8351 111.069 20.8351C112.317 20.8351 113.429 21.1144 114.404 21.6729C115.396 22.2154 116.164 22.9894 116.708 23.9947C117.268 24.984 117.548 26.133 117.548 27.4415ZM111.069 23.2287C110.109 23.2287 109.293 23.516 108.621 24.0904C107.965 24.6489 107.565 25.3989 107.421 26.3404H114.692C114.564 25.4149 114.173 24.6649 113.517 24.0904C112.861 23.516 112.045 23.2287 111.069 23.2287Z" fill="#363636"/>
<path d="M123.285 22.8457C124.149 21.5053 125.669 20.8351 127.845 20.8351V23.6835C127.589 23.6356 127.357 23.6117 127.149 23.6117C125.981 23.6117 125.069 23.9548 124.413 24.641C123.757 25.3112 123.429 26.2846 123.429 27.5612V33.7606H120.43V20.9787H123.285V22.8457Z" fill="#363636"/>
<path d="M130.39 16H133.39V33.7606H130.39V16Z" fill="#363636"/>
<path d="M142.222 20.8351C144.11 20.8351 145.55 21.2899 146.542 22.1995C147.55 23.0931 148.054 24.4495 148.054 26.2686V33.7606H145.222V32.2048C144.854 32.7633 144.326 33.1941 143.638 33.4973C142.966 33.7846 142.15 33.9282 141.19 33.9282C140.23 33.9282 139.391 33.7686 138.671 33.4495C137.951 33.1144 137.391 32.6596 136.991 32.0851C136.607 31.4947 136.415 30.8324 136.415 30.0984C136.415 28.9495 136.839 28.0319 137.687 27.3457C138.551 26.6436 139.902 26.2926 141.742 26.2926H145.054V26.1011C145.054 25.2074 144.782 24.5213 144.238 24.0426C143.71 23.5638 142.918 23.3245 141.862 23.3245C141.142 23.3245 140.43 23.4362 139.726 23.6596C139.039 23.883 138.455 24.1941 137.975 24.5931L136.799 22.4149C137.471 21.9043 138.279 21.5133 139.223 21.242C140.166 20.9707 141.166 20.8351 142.222 20.8351ZM141.814 31.75C142.566 31.75 143.23 31.5824 143.806 31.2473C144.398 30.8963 144.814 30.4016 145.054 29.7633V28.2793H141.958C140.23 28.2793 139.367 28.8457 139.367 29.9787C139.367 30.5213 139.582 30.9521 140.014 31.2713C140.446 31.5904 141.046 31.75 141.814 31.75Z" fill="#363636"/>
<path d="M159.175 20.8351C160.791 20.8351 162.087 21.3059 163.063 22.2473C164.039 23.1888 164.527 24.5851 164.527 26.4362V33.7606H161.527V26.8191C161.527 25.7021 161.263 24.8644 160.735 24.3059C160.207 23.7314 159.455 23.4441 158.479 23.4441C157.375 23.4441 156.503 23.7793 155.863 24.4495C155.223 25.1037 154.903 26.0532 154.903 27.2979V33.7606H151.904V20.9787H154.759V22.6303C155.255 22.0399 155.879 21.5931 156.631 21.2899C157.383 20.9867 158.231 20.8351 159.175 20.8351Z" fill="#363636"/>
<path d="M181 16V33.7606H178.12V32.109C177.624 32.7154 177.008 33.1702 176.272 33.4734C175.552 33.7766 174.753 33.9282 173.873 33.9282C172.641 33.9282 171.529 33.6569 170.537 33.1144C169.561 32.5718 168.793 31.8059 168.233 30.8165C167.673 29.8112 167.393 28.6622 167.393 27.3697C167.393 26.0771 167.673 24.9362 168.233 23.9468C168.793 22.9574 169.561 22.1915 170.537 21.6489C171.529 21.1064 172.641 20.8351 173.873 20.8351C174.721 20.8351 175.496 20.9787 176.2 21.266C176.904 21.5532 177.504 21.984 178 22.5585V16H181ZM174.233 31.367C174.953 31.367 175.6 31.2074 176.176 30.8883C176.752 30.5532 177.208 30.0824 177.544 29.4761C177.88 28.8697 178.048 28.1676 178.048 27.3697C178.048 26.5718 177.88 25.8697 177.544 25.2633C177.208 24.6569 176.752 24.1941 176.176 23.875C175.6 23.5399 174.953 23.3723 174.233 23.3723C173.513 23.3723 172.865 23.5399 172.289 23.875C171.713 24.1941 171.257 24.6569 170.921 25.2633C170.585 25.8697 170.417 26.5718 170.417 27.3697C170.417 28.1676 170.585 28.8697 170.921 29.4761C171.257 30.0824 171.713 30.5532 172.289 30.8883C172.865 31.2074 173.513 31.367 174.233 31.367Z" fill="#363636"/>
</svg>
