<svg width="24" height="25" viewBox="0 0 24 25" fill="none" xmlns="http://www.w3.org/2000/svg">
<path d="M12 13.7539C12.5523 13.7539 13 13.3062 13 12.7539C13 12.2016 12.5523 11.7539 12 11.7539C11.4477 11.7539 11 12.2016 11 12.7539C11 13.3062 11.4477 13.7539 12 13.7539Z" stroke="#363636" stroke-width="2" stroke-linecap="round" stroke-linejoin="round"/>
<path d="M12 6.75391C12.5523 6.75391 13 6.30619 13 5.75391C13 5.20162 12.5523 4.75391 12 4.75391C11.4477 4.75391 11 5.20162 11 5.75391C11 6.30619 11.4477 6.75391 12 6.75391Z" stroke="#363636" stroke-width="2" stroke-linecap="round" stroke-linejoin="round"/>
<path d="M12 20.7539C12.5523 20.7539 13 20.3062 13 19.7539C13 19.2016 12.5523 18.7539 12 18.7539C11.4477 18.7539 11 19.2016 11 19.7539C11 20.3062 11.4477 20.7539 12 20.7539Z" stroke="#363636" stroke-width="2" stroke-linecap="round" stroke-linejoin="round"/>
</svg>
