<svg width="24" height="25" viewBox="0 0 24 25" fill="none" xmlns="http://www.w3.org/2000/svg">
<path d="M8.68934 21.0038H4.5C4.30109 21.0038 4.11032 20.9248 3.96967 20.7841C3.82902 20.6435 3.75 20.4527 3.75 20.2538V16.0645C3.75 15.966 3.7694 15.8684 3.80709 15.7774C3.84478 15.6864 3.90003 15.6038 3.96967 15.5341L15.2197 4.28412C15.3603 4.14347 15.5511 4.06445 15.75 4.06445C15.9489 4.06445 16.1397 4.14347 16.2803 4.28412L20.4697 8.47346C20.6103 8.61412 20.6893 8.80488 20.6893 9.00379C20.6893 9.20271 20.6103 9.39347 20.4697 9.53412L9.21967 20.7841C9.15003 20.8538 9.06735 20.909 8.97635 20.9467C8.88536 20.9844 8.78783 21.0038 8.68934 21.0038Z" stroke="#363636" stroke-width="2" stroke-linecap="round" stroke-linejoin="round"/>
<path d="M12.75 6.75391L18 12.0039" stroke="#363636" stroke-width="2" stroke-linecap="round" stroke-linejoin="round"/>
<path d="M8.95208 20.9561L3.7977 15.8018" stroke="#363636" stroke-width="2" stroke-linecap="round" stroke-linejoin="round"/>
</svg>
