<svg width="24" height="25" viewBox="0 0 24 25" fill="none" xmlns="http://www.w3.org/2000/svg">
<path fill-rule="evenodd" clip-rule="evenodd" d="M16.7197 4.72358C16.7916 4.65167 16.8744 4.59742 16.9629 4.56082L17.7803 4.72354L17.7808 4.72407L21.5302 8.47288C21.8231 8.76575 21.8231 9.24062 21.5303 9.53354C21.2374 9.82646 20.7625 9.82649 20.4696 9.53362L18 7.06438V14.2539C18 14.6681 17.6642 15.0039 17.25 15.0039C16.8358 15.0039 16.5 14.6681 16.5 14.2539V7.06457L14.0303 9.53424C13.7374 9.82713 13.2626 9.82713 12.9697 9.53424C12.6768 9.24134 12.6768 8.76647 12.9697 8.47358L16.7197 4.72358ZM16.9629 4.56082L17.7754 4.71868C17.6401 4.58584 17.4546 4.50391 17.25 4.50391C17.1483 4.50391 17.0513 4.52415 16.9629 4.56082ZM4.5 12.0039C4.08579 12.0039 3.75 12.3397 3.75 12.7539C3.75 13.1681 4.08579 13.5039 4.5 13.5039H11.2499C11.6641 13.5039 11.9999 13.1681 11.9999 12.7539C11.9999 12.3397 11.6641 12.0039 11.2499 12.0039H4.5ZM3.75 6.75391C3.75 6.33969 4.08579 6.00391 4.5 6.00391H9.74991C10.1641 6.00391 10.4999 6.33969 10.4999 6.75391C10.4999 7.16812 10.1641 7.50391 9.74991 7.50391H4.5C4.08579 7.50391 3.75 7.16812 3.75 6.75391ZM4.5 18.0039C4.08579 18.0039 3.75 18.3397 3.75 18.7539C3.75 19.1681 4.08579 19.5039 4.5 19.5039H17.2499C17.6641 19.5039 17.9999 19.1681 17.9999 18.7539C17.9999 18.3397 17.6641 18.0039 17.2499 18.0039H4.5Z" fill="#363636"/>
</svg>
