<svg width="24" height="25" viewBox="0 0 24 25" fill="none" xmlns="http://www.w3.org/2000/svg">
<g opacity="0.9">
<path fill-rule="evenodd" clip-rule="evenodd" d="M3.75 6.75391C3.75 6.33969 4.08579 6.00391 4.5 6.00391H17.2499C17.6641 6.00391 17.9999 6.33969 17.9999 6.75391C17.9999 7.16812 17.6641 7.50391 17.2499 7.50391H4.5C4.08579 7.50391 3.75 7.16812 3.75 6.75391ZM17.25 10.5039C17.6642 10.5039 18 10.8397 18 11.2539L17.7754 20.7891C17.6401 20.922 17.4546 21.0039 17.25 21.0039C17.1483 21.0039 17.0513 20.9837 16.9629 20.947C16.8744 20.9104 16.7916 20.8561 16.7197 20.7842L12.9697 17.0342C12.6768 16.7413 12.6768 16.2665 12.9697 15.9736C13.2626 15.6807 13.7374 15.6807 14.0303 15.9736L16.5 18.4432V11.2539C16.5 10.8397 16.8358 10.5039 17.25 10.5039ZM18 11.2539L17.781 20.7836L21.5302 17.0348C21.8231 16.742 21.8231 16.2671 21.5303 15.9742C21.2374 15.6813 20.7625 15.6812 20.4696 15.9741L18 18.4434V11.2539ZM4.5 12.0039C4.08579 12.0039 3.75 12.3397 3.75 12.7539C3.75 13.1681 4.08579 13.5039 4.5 13.5039H11.2499C11.6641 13.5039 11.9999 13.1681 11.9999 12.7539C11.9999 12.3397 11.6641 12.0039 11.2499 12.0039H4.5ZM4.5 18.0039C4.08579 18.0039 3.75 18.3397 3.75 18.7539C3.75 19.1681 4.08579 19.5039 4.5 19.5039H9.75C10.1642 19.5039 10.5 19.1681 10.5 18.7539C10.5 18.3397 10.1642 18.0039 9.75 18.0039H4.5Z" fill="#363636"/>
</g>
</svg>
